HIERARCHY
ROOT hip
{
	OFFSET 0.000000 0.000000 0.000000
	CHANNELS 6 Xposition Yposition Zposition Xrotation Zrotation Yrotation 
	JOINT abdomen
	{
		OFFSET 0.000000 3.422050 0.000000
		CHANNELS 3 Xrotation Zrotation Yrotation 
		JOINT chest
		{
			OFFSET 0.000000 8.486693 -0.684411
			CHANNELS 3 Xrotation Zrotation Yrotation 
			JOINT neck
			{
				OFFSET 0.000000 10.266162 -0.273764
				CHANNELS 3 Xrotation Zrotation Yrotation 
				JOINT head
				{
					OFFSET 0.000000 3.148285 0.000000
					CHANNELS 3 Xrotation Zrotation Yrotation 
					End Site
					{
						OFFSET 0.000000 3.148289 0.000000
					}
				}
			}
			JOINT lCollar
			{
				OFFSET 3.422053 6.707223 -0.821293
				CHANNELS 3 Yrotation Zrotation Xrotation 
				JOINT lShldr
				{
					OFFSET 3.285171 0.000000 0.000000
					CHANNELS 3 Zrotation Yrotation Xrotation 
					JOINT lForeArm
					{
						OFFSET 10.129278 0.000000 0.000000
						CHANNELS 3 Yrotation Zrotation Xrotation 
						JOINT lHand
						{
							OFFSET 8.486692 0.000000 0.000000
							CHANNELS 3 Zrotation Yrotation Xrotation 
							End Site
							{
								OFFSET 4.106464 0.000000 0.000000
							}
						}
					}
				}
			}
			JOINT rCollar
			{
				OFFSET -3.558935 6.707223 -0.821293
				CHANNELS 3 Yrotation Zrotation Xrotation 
				JOINT rShldr
				{
					OFFSET -3.148289 0.000000 0.000000
					CHANNELS 3 Zrotation Yrotation Xrotation 
					JOINT rForeArm
					{
						OFFSET -10.266159 0.000000 0.000000
						CHANNELS 3 Yrotation Zrotation Xrotation 
						JOINT rHand
						{
							OFFSET -8.349810 0.000000 0.000000
							CHANNELS 3 Zrotation Yrotation Xrotation 
							End Site
							{
								OFFSET -4.106464 0.000000 0.000000
							}
						}
					}
				}
			}
		}
	}
	JOINT lThigh
	{
		OFFSET 5.338403 -1.642589 1.368821
		CHANNELS 3 Xrotation Zrotation Yrotation 
		JOINT lShin
		{
			OFFSET -2.053232 -20.121670 0.000000
			CHANNELS 3 Xrotation Zrotation Yrotation 
			JOINT lFoot
			{
				OFFSET 0.000000 -19.300380 -1.231939
				CHANNELS 3 Xrotation Yrotation Zrotation 
				End Site
				{
					OFFSET 0.000000 -2.463878 4.653993
				}
			}
		}
	}
	JOINT rThigh
	{
		OFFSET -5.338403 -1.642589 1.368821
		CHANNELS 3 Xrotation Zrotation Yrotation 
		JOINT rShin
		{
			OFFSET 2.053232 -20.121670 0.000000
			CHANNELS 3 Xrotation Zrotation Yrotation 
			JOINT rFoot
			{
				OFFSET 0.000000 -19.300380 -1.231939
				CHANNELS 3 Xrotation Yrotation Zrotation 
				End Site
				{
					OFFSET 0.000000 -2.463878 4.653993
				}
			}
		}
	}
}
MOTION
Frames: 13
Frame Time: 0.049897
0.501617 18.858795 -0.465591 3.002917 0.000000 -180.000000 -20.739847 -1.496656 -1.096777 -19.088144 -1.052831 -0.682979 -16.991632 -10.116366 0.087209 8.787762 0.000000 0.000000 24.361858 4.473938 2.627170 -57.903549 26.329994 -86.370872 51.306801 -3.419940 73.905418 60.469147 3.047807 15.854785 -23.809763 -6.544650 1.147975 60.274830 -27.391735 -87.376884 -52.286022 3.223665 73.982010 -62.492966 -1.513801 17.926531 -23.573441 37.439640 -66.694077 116.884918 -40.579838 18.928482 69.827553 -48.447231 26.008678 -22.793779 -35.695496 65.157967 119.102890 40.000568 -17.554077 65.814636 48.394173 -22.722338 
0.501617 18.599873 -0.316004 2.102958 0.000000 -180.000000 -20.240091 -1.496795 -1.096490 -18.388355 -1.052756 -0.683204 -16.998394 -10.082623 0.087513 8.751773 0.000000 0.000000 24.160236 4.460858 1.550603 -58.223141 26.455770 -86.504547 51.824532 -3.380713 73.937584 60.075115 2.402252 15.513253 -23.661398 -6.365884 0.176201 60.268421 -27.389160 -87.374046 -52.783127 3.203503 74.013138 -61.970566 -1.001992 17.434208 -25.157375 37.676842 -67.441414 118.003716 -40.203850 18.160622 69.872665 -49.061386 26.415689 -24.334110 -35.951683 65.852348 120.214157 39.598793 -16.800138 65.771072 49.025475 -23.061787 
0.501617 18.340950 -0.166416 1.203153 0.000000 -180.000000 -19.740255 -1.496937 -1.096204 -17.688364 -1.052678 -0.683428 -17.005157 -10.048879 0.087813 8.715780 0.000000 0.000000 23.958256 4.451552 0.473201 -58.543457 26.580893 -86.639183 52.342289 -3.341185 73.969383 59.684933 1.754111 15.176170 -23.509954 -6.189534 -0.796316 60.262001 -27.386580 -87.371208 -53.280277 3.183069 74.044106 -61.452415 -0.485492 16.946405 -26.751650 37.897747 -68.199875 119.110191 -39.816368 17.406343 69.925072 -49.675480 26.828680 -25.884626 -36.192833 66.557922 121.312614 39.185692 -16.060375 65.732719 49.657135 -23.404989 
0.501617 18.082029 -0.016828 0.303018 0.000000 -180.000000 -19.240362 -1.497081 -1.095919 -16.988209 -1.052597 -0.683651 -17.011919 -10.015134 0.088110 8.679790 0.000000 0.000000 23.756023 4.446033 -0.604825 -58.864441 26.705334 -86.774727 52.860069 -3.301378 74.000816 59.298576 1.103500 14.843504 -23.355503 -6.015683 -1.769440 60.255581 -27.383997 -87.368362 -53.777462 3.162361 74.074883 -60.938511 0.035560 16.463142 -28.355368 38.101997 -68.968651 120.204163 -39.417702 16.665873 69.985130 -50.289478 27.247974 -27.444557 -36.418598 67.274002 122.398125 38.761612 -15.334984 65.699760 50.289101 -23.752146 
0.501617 17.823107 0.132759 -0.597335 0.000000 180.000000 -18.740431 -1.497227 -1.095636 -16.287952 -1.052514 -0.683873 -17.018684 -9.981389 0.088402 8.643795 0.000000 0.000000 23.553640 4.444306 -1.683265 -59.186123 26.829103 -86.911217 53.377857 -3.261276 74.031914 58.915997 0.450540 14.515223 -23.198103 -5.844411 -2.743034 60.249168 -27.381418 -87.365524 -54.274662 3.141389 74.105484 -60.428890 0.561032 15.984439 -29.967575 38.289257 -69.746872 121.285408 -39.008179 15.939385 70.053085 -50.903252 27.673843 -29.013083 -36.628620 67.999878 123.470551 38.326866 -14.624077 65.672432 50.921272 -24.103481 
0.501617 17.564184 0.282347 -1.497797 0.000000 180.000000 -18.240482 -1.497376 -1.095354 -15.587645 -1.052427 -0.684094 -17.025442 -9.947643 0.088690 8.607804 0.000000 0.000000 23.351229 4.446378 -2.761908 -59.508480 26.952181 -87.048622 53.895618 -3.220903 74.062637 58.537106 -0.204657 14.191275 -23.037821 -5.675800 -3.716959 60.242741 -27.378830 -87.362671 -54.771862 3.120154 74.135902 -59.923531 1.090784 15.510306 -31.587290 38.459255 -70.533653 122.353783 -38.588100 15.227031 70.129311 -51.516750 28.106640 -30.589340 -36.822617 68.734756 124.529747 37.881786 -13.927777 65.650955 51.553596 -24.459217 
0.501617 17.305262 0.431935 -2.398254 0.000000 180.000000 -17.740534 -1.497528 -1.095073 -14.887337 -1.052339 -0.684315 -17.032202 -9.913897 0.088974 8.571810 0.000000 0.000000 23.148891 4.452249 -3.840543 -59.831543 27.074577 -87.186974 54.413338 -3.180251 74.092987 58.161903 -0.861971 13.871638 -22.874733 -5.509924 -4.691076 60.236313 -27.376245 -87.359818 -55.269039 3.098650 74.166138 -59.422474 1.624680 15.040765 -33.213463 38.611702 -71.328018 123.409187 -38.157822 14.528943 70.214096 -52.129860 28.546692 -32.172440 -37.000305 69.477844 125.575653 37.426720 -13.246165 65.635597 52.186008 -24.819622 
0.501617 17.046339 0.581522 -3.298596 0.000000 180.000000 -17.240602 -1.497681 -1.094794 -14.187079 -1.052247 -0.684533 -17.038961 -9.880152 0.089254 8.535816 0.000000 0.000000 22.946735 4.461915 -4.918959 -60.155266 27.196270 -87.326241 54.930992 -3.139324 74.122971 57.790314 -1.521285 13.556266 -22.708904 -5.346856 -5.665245 60.229908 -27.373663 -87.356987 -55.766186 3.076894 74.196198 -58.925724 2.162581 14.575824 -34.845039 38.746395 -72.128998 124.451515 -37.717651 13.845196 70.307877 -52.742508 28.994383 -33.761417 -37.161430 70.228256 126.608215 36.961998 -12.579288 65.626579 52.818401 -25.184921 
0.501617 16.787418 0.731110 -4.198715 0.000000 180.000000 -16.740715 -1.497838 -1.094516 -13.486927 -1.052153 -0.684751 -17.045719 -9.846402 0.089529 8.499822 0.000000 0.000000 22.744873 4.475366 -5.996944 -60.479671 27.317255 -87.466415 55.448578 -3.098135 74.152580 57.422310 -2.182485 13.245130 -22.540407 -5.186668 -6.639320 60.223488 -27.371080 -87.354149 -56.263268 3.054873 74.226051 -58.433254 2.704345 14.115487 -36.480911 38.863144 -72.935585 125.480682 -37.267918 13.175863 70.410965 -53.354568 29.450069 -35.355320 -37.305790 70.985130 127.627411 36.487968 -11.927174 65.624191 53.450703 -25.555407 
0.501617 16.528496 0.880698 -5.098495 0.000000 180.000000 -16.240883 -1.497997 -1.094239 -12.786931 -1.052056 -0.684968 -17.052477 -9.812656 0.089801 8.463827 0.000000 0.000000 22.543409 4.492591 -7.074289 -60.804764 27.437532 -87.607529 55.966045 -3.056683 74.181808 57.057827 -2.845453 12.938186 -22.369331 -5.029432 -7.613166 60.217072 -27.368500 -87.351311 -56.760273 3.032599 74.255707 -57.945107 3.249835 13.659766 -38.119957 38.961807 -73.746719 126.496727 -36.808971 12.520977 70.523819 -53.965981 29.914190 -36.953159 -37.433220 71.747574 128.633270 36.004986 -11.289828 65.628754 54.082859 -25.931389 
0.501617 16.269573 1.030285 -5.999246 0.000000 180.000000 -15.741124 -1.498158 -1.093964 -12.087145 -1.051957 -0.685183 -17.059233 -9.778907 0.090069 8.427833 0.000000 0.000000 22.342443 4.513569 -8.150782 -61.130501 27.557077 -87.749535 56.483379 -3.014977 74.210648 56.696819 -3.510077 12.635400 -22.195744 -4.875208 -8.586635 60.210651 -27.365911 -87.348473 -57.257175 3.010075 74.285156 -57.461246 3.798908 13.208657 -39.761021 39.042282 -74.561348 127.499542 -36.341129 11.880549 70.646866 -54.576637 30.387171 -38.553898 -37.543579 72.514626 129.625763 35.513374 -10.667217 65.640549 54.714764 -26.313162 
0.501617 16.528496 0.880698 -5.098495 0.000000 180.000000 -16.240883 -1.497997 -1.094239 -12.786931 -1.052056 -0.684968 -17.065990 -9.745160 0.090333 8.391837 0.000000 0.000000 22.543409 4.492591 -7.074289 -60.804764 27.437532 -87.607529 55.966049 -3.056685 74.181816 57.057823 -2.845453 12.938185 -22.369331 -5.029431 -7.613166 60.204254 -27.363338 -87.345650 -56.760273 3.032599 74.255707 -57.945107 3.249835 13.659764 -38.119953 38.961803 -73.746712 126.496727 -36.808968 12.520975 70.523834 -53.965992 29.914196 -36.953159 -37.433220 71.747574 128.633270 36.004986 -11.289824 65.628754 54.082851 -25.931389 
0.501617 16.787418 0.731110 -4.198715 0.000000 180.000000 -16.740717 -1.497838 -1.094516 -13.486928 -1.052153 -0.684751 -17.072746 -9.711412 0.090592 8.355843 0.000000 0.000000 22.744873 4.475366 -5.996944 -60.479671 27.317253 -87.466423 55.448578 -3.098135 74.152580 57.422318 -2.182485 13.245131 -22.540409 -5.186668 -6.639320 60.197819 -27.360744 -87.342789 -56.263260 3.054875 74.226036 -58.433258 2.704345 14.115487 -36.480911 38.863144 -72.935585 125.480682 -37.267918 13.175863 70.410965 -53.354568 29.450069 -35.355324 -37.305790 70.985138 127.627411 36.487968 -11.927174 65.624199 53.450706 -25.555410 
